<svg width="48" height="48" viewBox="0 0 48 48" fill="none" xmlns="http://www.w3.org/2000/svg">
<rect width="48" height="48" rx="4" fill="#ECECEC"/>
<path d="M25.44 25.248V36.96C25.44 37.344 25.824 37.536 26.16 37.392C28.464 36.096 35.472 32.112 35.472 32.112C36.384 31.584 36.96 30.624 36.96 29.568V19.056C36.96 18.672 36.576 18.48 36.24 18.624L25.92 24.432C25.632 24.624 25.44 24.912 25.44 25.248Z" fill="#5D5FEF"/>
<path d="M24.48 21.984L34.848 16.176C35.184 15.984 35.184 15.552 34.848 15.36C32.544 14.064 25.488 10.032 25.488 10.032C24.5765 9.50399 23.424 9.50399 22.512 10.032C22.512 10.032 15.456 14.016 13.152 15.36C12.816 15.552 12.816 15.984 13.152 16.176L23.52 21.984C23.808 22.128 24.192 22.128 24.48 21.984Z" fill="#5D5FEF"/>
<path d="M22.08 24.432L11.76 18.624C11.424 18.432 11.04 18.672 11.04 19.056V29.52C11.04 30.576 11.616 31.536 12.528 32.064C12.528 32.064 19.536 36.048 21.84 37.344C22.176 37.536 22.56 37.296 22.56 36.9125V25.248C22.56 24.912 22.368 24.624 22.08 24.432Z" fill="#5D5FEF"/>
</svg>
