<svg width="26" height="29" viewBox="0 0 26 29" fill="none" xmlns="http://www.w3.org/2000/svg">
<path d="M14.44 16.248V27.96C14.44 28.344 14.824 28.536 15.16 28.392C17.464 27.096 24.472 23.112 24.472 23.112C25.384 22.584 25.96 21.624 25.96 20.568V10.056C25.96 9.67199 25.576 9.47999 25.24 9.62399L14.92 15.432C14.632 15.624 14.44 15.912 14.44 16.248Z" fill="white"/>
<path d="M13.48 12.984L23.848 7.17599C24.184 6.98399 24.184 6.55199 23.848 6.35999C21.544 5.06399 14.488 1.03199 14.488 1.03199C13.5765 0.503986 12.424 0.503986 11.512 1.03199C11.512 1.03199 4.45604 5.01599 2.15204 6.35999C1.81604 6.55199 1.81604 6.98399 2.15204 7.17599L12.52 12.984C12.808 13.128 13.192 13.128 13.48 12.984Z" fill="white"/>
<path d="M11.08 15.432L0.760039 9.62399C0.424039 9.43199 0.0400391 9.67199 0.0400391 10.056V20.52C0.0400391 21.576 0.616039 22.536 1.52804 23.064C1.52804 23.064 8.53604 27.048 10.84 28.344C11.176 28.536 11.56 28.296 11.56 27.9125V16.248C11.56 15.912 11.368 15.624 11.08 15.432Z" fill="white"/>
</svg>
